<mxfile host="app.diagrams.net" modified="2024-05-06T12:19:16.282Z" agent="Mozilla/5.0 (Windows NT 10.0; Win64; x64) AppleWebKit/537.36 (KHTML, like Gecko) Chrome/124.0.0.0 Safari/537.36" etag="EpzmCjXmTM-0Z6YE1l37" version="24.3.1" type="device">
  <diagram name="Page-1" id="BNHlkQ9r4y_ielki4RRV">
    <mxGraphModel dx="1050" dy="522" grid="1" gridSize="10" guides="1" tooltips="1" connect="1" arrows="1" fold="1" page="1" pageScale="1" pageWidth="827" pageHeight="1169" math="0" shadow="0">
      <root>
        <mxCell id="0" />
        <mxCell id="1" parent="0" />
        <mxCell id="zkQ7SBovNq_syJbdNT2H-1" value="" style="rounded=0;whiteSpace=wrap;html=1;" vertex="1" parent="1">
          <mxGeometry x="200" y="60" width="490" height="560" as="geometry" />
        </mxCell>
        <mxCell id="zkQ7SBovNq_syJbdNT2H-2" value="Funding Manager" style="shape=umlActor;verticalLabelPosition=bottom;verticalAlign=top;html=1;" vertex="1" parent="1">
          <mxGeometry x="860" y="190" width="30" height="60" as="geometry" />
        </mxCell>
        <mxCell id="zkQ7SBovNq_syJbdNT2H-4" value="View funding opportunities" style="ellipse;whiteSpace=wrap;html=1;" vertex="1" parent="1">
          <mxGeometry x="280" y="240" width="105" height="50" as="geometry" />
        </mxCell>
        <mxCell id="zkQ7SBovNq_syJbdNT2H-6" value="Create funding opportunity" style="ellipse;whiteSpace=wrap;html=1;" vertex="1" parent="1">
          <mxGeometry x="500" y="205" width="105" height="50" as="geometry" />
        </mxCell>
        <mxCell id="zkQ7SBovNq_syJbdNT2H-8" value="Apply for funding opportunity" style="ellipse;whiteSpace=wrap;html=1;" vertex="1" parent="1">
          <mxGeometry x="280" y="330" width="105" height="50" as="geometry" />
        </mxCell>
        <mxCell id="zkQ7SBovNq_syJbdNT2H-9" value="" style="endArrow=none;html=1;rounded=0;exitX=1;exitY=0.5;exitDx=0;exitDy=0;entryX=0;entryY=0.3333333333333333;entryDx=0;entryDy=0;entryPerimeter=0;" edge="1" parent="1" source="zkQ7SBovNq_syJbdNT2H-6" target="zkQ7SBovNq_syJbdNT2H-2">
          <mxGeometry width="50" height="50" relative="1" as="geometry">
            <mxPoint x="560" y="240" as="sourcePoint" />
            <mxPoint x="610" y="190" as="targetPoint" />
          </mxGeometry>
        </mxCell>
        <mxCell id="zkQ7SBovNq_syJbdNT2H-10" value="&amp;lt;&amp;lt;include&amp;gt;&amp;gt;" style="endArrow=open;endSize=12;dashed=1;html=1;rounded=0;exitX=0;exitY=0.5;exitDx=0;exitDy=0;" edge="1" parent="1" source="zkQ7SBovNq_syJbdNT2H-6" target="zkQ7SBovNq_syJbdNT2H-4">
          <mxGeometry width="160" relative="1" as="geometry">
            <mxPoint x="370" y="180" as="sourcePoint" />
            <mxPoint x="530" y="180" as="targetPoint" />
          </mxGeometry>
        </mxCell>
        <mxCell id="zkQ7SBovNq_syJbdNT2H-12" value="Applicant" style="shape=umlActor;verticalLabelPosition=bottom;verticalAlign=top;html=1;" vertex="1" parent="1">
          <mxGeometry x="90" y="300" width="30" height="60" as="geometry" />
        </mxCell>
        <mxCell id="zkQ7SBovNq_syJbdNT2H-13" value="" style="endArrow=none;html=1;rounded=0;entryX=0;entryY=0.5;entryDx=0;entryDy=0;exitX=1;exitY=0.3333333333333333;exitDx=0;exitDy=0;exitPerimeter=0;" edge="1" parent="1" source="zkQ7SBovNq_syJbdNT2H-12" target="zkQ7SBovNq_syJbdNT2H-4">
          <mxGeometry width="50" height="50" relative="1" as="geometry">
            <mxPoint x="240" y="300" as="sourcePoint" />
            <mxPoint x="290" y="250" as="targetPoint" />
          </mxGeometry>
        </mxCell>
        <mxCell id="zkQ7SBovNq_syJbdNT2H-15" value="Admin" style="shape=umlActor;verticalLabelPosition=bottom;verticalAlign=top;html=1;outlineConnect=0;" vertex="1" parent="1">
          <mxGeometry x="90" y="75" width="30" height="60" as="geometry" />
        </mxCell>
        <mxCell id="zkQ7SBovNq_syJbdNT2H-17" value="&amp;lt;&amp;lt;Application Subsystem&amp;gt;&amp;gt;" style="text;html=1;align=center;verticalAlign=middle;whiteSpace=wrap;rounded=0;fontStyle=1" vertex="1" parent="1">
          <mxGeometry x="200" y="60" width="180" height="30" as="geometry" />
        </mxCell>
        <mxCell id="zkQ7SBovNq_syJbdNT2H-19" value="Login" style="ellipse;whiteSpace=wrap;html=1;" vertex="1" parent="1">
          <mxGeometry x="280" y="130" width="105" height="50" as="geometry" />
        </mxCell>
        <mxCell id="zkQ7SBovNq_syJbdNT2H-20" value="Verify login" style="ellipse;whiteSpace=wrap;html=1;" vertex="1" parent="1">
          <mxGeometry x="550" y="80" width="105" height="50" as="geometry" />
        </mxCell>
        <mxCell id="zkQ7SBovNq_syJbdNT2H-22" value="&amp;lt;&amp;lt;include&amp;gt;&amp;gt;" style="endArrow=open;endSize=12;dashed=1;html=1;rounded=0;exitX=0;exitY=1;exitDx=0;exitDy=0;entryX=1;entryY=0.5;entryDx=0;entryDy=0;" edge="1" parent="1" source="zkQ7SBovNq_syJbdNT2H-20" target="zkQ7SBovNq_syJbdNT2H-19">
          <mxGeometry width="160" relative="1" as="geometry">
            <mxPoint x="470" y="180" as="sourcePoint" />
            <mxPoint x="630" y="180" as="targetPoint" />
          </mxGeometry>
        </mxCell>
        <mxCell id="zkQ7SBovNq_syJbdNT2H-23" value="" style="endArrow=none;html=1;rounded=0;exitX=1;exitY=1;exitDx=0;exitDy=0;entryX=0;entryY=0.3333333333333333;entryDx=0;entryDy=0;entryPerimeter=0;" edge="1" parent="1" source="zkQ7SBovNq_syJbdNT2H-19" target="zkQ7SBovNq_syJbdNT2H-2">
          <mxGeometry width="50" height="50" relative="1" as="geometry">
            <mxPoint x="580" y="210" as="sourcePoint" />
            <mxPoint x="630" y="160" as="targetPoint" />
          </mxGeometry>
        </mxCell>
        <mxCell id="zkQ7SBovNq_syJbdNT2H-24" value="" style="endArrow=none;html=1;rounded=0;exitX=1;exitY=0.3333333333333333;exitDx=0;exitDy=0;exitPerimeter=0;entryX=0;entryY=0.5;entryDx=0;entryDy=0;" edge="1" parent="1" source="zkQ7SBovNq_syJbdNT2H-12" target="zkQ7SBovNq_syJbdNT2H-19">
          <mxGeometry width="50" height="50" relative="1" as="geometry">
            <mxPoint x="140" y="230" as="sourcePoint" />
            <mxPoint x="190" y="180" as="targetPoint" />
          </mxGeometry>
        </mxCell>
        <mxCell id="zkQ7SBovNq_syJbdNT2H-25" value="" style="endArrow=none;html=1;rounded=0;entryX=0;entryY=0;entryDx=0;entryDy=0;exitX=1;exitY=0.3333333333333333;exitDx=0;exitDy=0;exitPerimeter=0;" edge="1" parent="1" source="zkQ7SBovNq_syJbdNT2H-15" target="zkQ7SBovNq_syJbdNT2H-19">
          <mxGeometry width="50" height="50" relative="1" as="geometry">
            <mxPoint x="190" y="160" as="sourcePoint" />
            <mxPoint x="240" y="110" as="targetPoint" />
          </mxGeometry>
        </mxCell>
        <mxCell id="zkQ7SBovNq_syJbdNT2H-26" value="" style="endArrow=none;html=1;rounded=0;exitX=1;exitY=0.3333333333333333;exitDx=0;exitDy=0;exitPerimeter=0;entryX=0;entryY=0.5;entryDx=0;entryDy=0;" edge="1" parent="1" source="zkQ7SBovNq_syJbdNT2H-12" target="zkQ7SBovNq_syJbdNT2H-8">
          <mxGeometry width="50" height="50" relative="1" as="geometry">
            <mxPoint x="140" y="370" as="sourcePoint" />
            <mxPoint x="190" y="320" as="targetPoint" />
          </mxGeometry>
        </mxCell>
        <mxCell id="zkQ7SBovNq_syJbdNT2H-27" value="View pending application" style="ellipse;whiteSpace=wrap;html=1;" vertex="1" parent="1">
          <mxGeometry x="280" y="410" width="105" height="50" as="geometry" />
        </mxCell>
        <mxCell id="zkQ7SBovNq_syJbdNT2H-28" value="" style="endArrow=none;html=1;rounded=0;exitX=1;exitY=0.3333333333333333;exitDx=0;exitDy=0;exitPerimeter=0;entryX=0;entryY=0.5;entryDx=0;entryDy=0;" edge="1" parent="1" source="zkQ7SBovNq_syJbdNT2H-12" target="zkQ7SBovNq_syJbdNT2H-27">
          <mxGeometry width="50" height="50" relative="1" as="geometry">
            <mxPoint x="160" y="420" as="sourcePoint" />
            <mxPoint x="210" y="370" as="targetPoint" />
          </mxGeometry>
        </mxCell>
        <mxCell id="zkQ7SBovNq_syJbdNT2H-29" value="" style="endArrow=none;html=1;rounded=0;exitX=1;exitY=0.5;exitDx=0;exitDy=0;entryX=0;entryY=0.3333333333333333;entryDx=0;entryDy=0;entryPerimeter=0;" edge="1" parent="1" source="zkQ7SBovNq_syJbdNT2H-27" target="zkQ7SBovNq_syJbdNT2H-2">
          <mxGeometry width="50" height="50" relative="1" as="geometry">
            <mxPoint x="780" y="390" as="sourcePoint" />
            <mxPoint x="770" y="190" as="targetPoint" />
          </mxGeometry>
        </mxCell>
        <mxCell id="zkQ7SBovNq_syJbdNT2H-30" value="&amp;lt;&amp;lt;extends&amp;gt;&amp;gt;" style="endArrow=open;endSize=12;dashed=1;html=1;rounded=0;exitX=0;exitY=0.5;exitDx=0;exitDy=0;entryX=1;entryY=0.5;entryDx=0;entryDy=0;" edge="1" parent="1" source="zkQ7SBovNq_syJbdNT2H-31" target="zkQ7SBovNq_syJbdNT2H-27">
          <mxGeometry width="160" relative="1" as="geometry">
            <mxPoint x="210" y="550" as="sourcePoint" />
            <mxPoint x="370" y="550" as="targetPoint" />
          </mxGeometry>
        </mxCell>
        <mxCell id="zkQ7SBovNq_syJbdNT2H-31" value="Approve pending application" style="ellipse;whiteSpace=wrap;html=1;" vertex="1" parent="1">
          <mxGeometry x="540" y="470" width="105" height="50" as="geometry" />
        </mxCell>
        <mxCell id="zkQ7SBovNq_syJbdNT2H-32" value="" style="endArrow=none;html=1;rounded=0;entryX=0;entryY=0.3333333333333333;entryDx=0;entryDy=0;entryPerimeter=0;exitX=1;exitY=0.5;exitDx=0;exitDy=0;" edge="1" parent="1" source="zkQ7SBovNq_syJbdNT2H-31" target="zkQ7SBovNq_syJbdNT2H-2">
          <mxGeometry width="50" height="50" relative="1" as="geometry">
            <mxPoint x="760" y="390" as="sourcePoint" />
            <mxPoint x="810" y="340" as="targetPoint" />
          </mxGeometry>
        </mxCell>
        <mxCell id="zkQ7SBovNq_syJbdNT2H-33" value="Deny pending application" style="ellipse;whiteSpace=wrap;html=1;" vertex="1" parent="1">
          <mxGeometry x="540" y="390" width="105" height="50" as="geometry" />
        </mxCell>
        <mxCell id="zkQ7SBovNq_syJbdNT2H-34" value="" style="endArrow=none;html=1;rounded=0;entryX=0;entryY=0.3333333333333333;entryDx=0;entryDy=0;entryPerimeter=0;exitX=1;exitY=0;exitDx=0;exitDy=0;" edge="1" parent="1" source="zkQ7SBovNq_syJbdNT2H-33" target="zkQ7SBovNq_syJbdNT2H-2">
          <mxGeometry width="50" height="50" relative="1" as="geometry">
            <mxPoint x="710" y="370" as="sourcePoint" />
            <mxPoint x="760" y="320" as="targetPoint" />
          </mxGeometry>
        </mxCell>
        <mxCell id="zkQ7SBovNq_syJbdNT2H-35" value="&amp;lt;&amp;lt;extends&amp;gt;&amp;gt;" style="endArrow=open;endSize=12;dashed=1;html=1;rounded=0;exitX=0;exitY=0.5;exitDx=0;exitDy=0;entryX=1;entryY=0.5;entryDx=0;entryDy=0;" edge="1" parent="1" source="zkQ7SBovNq_syJbdNT2H-33" target="zkQ7SBovNq_syJbdNT2H-27">
          <mxGeometry width="160" relative="1" as="geometry">
            <mxPoint x="470" y="450" as="sourcePoint" />
            <mxPoint x="630" y="450" as="targetPoint" />
          </mxGeometry>
        </mxCell>
        <mxCell id="zkQ7SBovNq_syJbdNT2H-36" value="View application result" style="ellipse;whiteSpace=wrap;html=1;" vertex="1" parent="1">
          <mxGeometry x="280" y="500" width="105" height="50" as="geometry" />
        </mxCell>
        <mxCell id="zkQ7SBovNq_syJbdNT2H-37" value="" style="endArrow=none;html=1;rounded=0;exitX=1;exitY=0.3333333333333333;exitDx=0;exitDy=0;exitPerimeter=0;entryX=0;entryY=0.5;entryDx=0;entryDy=0;" edge="1" parent="1" source="zkQ7SBovNq_syJbdNT2H-12" target="zkQ7SBovNq_syJbdNT2H-36">
          <mxGeometry width="50" height="50" relative="1" as="geometry">
            <mxPoint x="80" y="490" as="sourcePoint" />
            <mxPoint x="130" y="440" as="targetPoint" />
          </mxGeometry>
        </mxCell>
      </root>
    </mxGraphModel>
  </diagram>
</mxfile>
